<mxfile host="app.diagrams.net" modified="2021-08-10T21:19:40.301Z" agent="5.0 (Windows NT 10.0; Win64; x64) AppleWebKit/537.36 (KHTML, like Gecko) Chrome/92.0.4515.131 Safari/537.36" etag="oi8WzXnAGDvToYqM-358" version="14.8.2" type="github">
  <diagram id="J-QG8xG0Ma3vYG8HvlZx" name="Page-1">
    <mxGraphModel dx="1422" dy="762" grid="1" gridSize="10" guides="1" tooltips="1" connect="1" arrows="1" fold="1" page="1" pageScale="1" pageWidth="827" pageHeight="1169" math="0" shadow="0">
      <root>
        <mxCell id="0" />
        <mxCell id="1" parent="0" />
        <mxCell id="cg6qyNsfiilicNUIA_CG-3" value="" style="edgeStyle=orthogonalEdgeStyle;rounded=0;orthogonalLoop=1;jettySize=auto;html=1;" edge="1" parent="1" source="cg6qyNsfiilicNUIA_CG-1" target="cg6qyNsfiilicNUIA_CG-2">
          <mxGeometry relative="1" as="geometry" />
        </mxCell>
        <mxCell id="cg6qyNsfiilicNUIA_CG-10" style="edgeStyle=orthogonalEdgeStyle;rounded=0;orthogonalLoop=1;jettySize=auto;html=1;entryX=0;entryY=0.5;entryDx=0;entryDy=0;entryPerimeter=0;" edge="1" parent="1" source="cg6qyNsfiilicNUIA_CG-1" target="cg6qyNsfiilicNUIA_CG-9">
          <mxGeometry relative="1" as="geometry" />
        </mxCell>
        <mxCell id="cg6qyNsfiilicNUIA_CG-1" value="ATG" style="aspect=fixed;perimeter=ellipsePerimeter;html=1;align=center;shadow=0;dashed=0;spacingTop=3;image;image=img/lib/active_directory/web_server.svg;" vertex="1" parent="1">
          <mxGeometry x="230" y="30" width="64" height="80" as="geometry" />
        </mxCell>
        <mxCell id="cg6qyNsfiilicNUIA_CG-5" style="edgeStyle=orthogonalEdgeStyle;rounded=0;orthogonalLoop=1;jettySize=auto;html=1;" edge="1" parent="1" source="cg6qyNsfiilicNUIA_CG-2" target="cg6qyNsfiilicNUIA_CG-4">
          <mxGeometry relative="1" as="geometry" />
        </mxCell>
        <mxCell id="cg6qyNsfiilicNUIA_CG-2" value="Factura Electronica" style="fontColor=#0066CC;verticalAlign=top;verticalLabelPosition=bottom;labelPosition=center;align=center;html=1;outlineConnect=0;fillColor=#CCCCCC;strokeColor=#6881B3;gradientColor=none;gradientDirection=north;strokeWidth=2;shape=mxgraph.networks.pc;" vertex="1" parent="1">
          <mxGeometry x="30" y="35" width="100" height="70" as="geometry" />
        </mxCell>
        <mxCell id="cg6qyNsfiilicNUIA_CG-7" style="edgeStyle=orthogonalEdgeStyle;rounded=0;orthogonalLoop=1;jettySize=auto;html=1;entryX=0.486;entryY=-0.02;entryDx=0;entryDy=0;entryPerimeter=0;" edge="1" parent="1" source="cg6qyNsfiilicNUIA_CG-4" target="cg6qyNsfiilicNUIA_CG-6">
          <mxGeometry relative="1" as="geometry" />
        </mxCell>
        <mxCell id="cg6qyNsfiilicNUIA_CG-4" value="OTP" style="html=1;verticalLabelPosition=bottom;align=center;labelBackgroundColor=#ffffff;verticalAlign=top;strokeWidth=2;strokeColor=#0080F0;shadow=0;dashed=0;shape=mxgraph.ios7.icons.mail;" vertex="1" parent="1">
          <mxGeometry x="57.5" y="180" width="45" height="30" as="geometry" />
        </mxCell>
        <mxCell id="cg6qyNsfiilicNUIA_CG-8" style="edgeStyle=orthogonalEdgeStyle;rounded=0;orthogonalLoop=1;jettySize=auto;html=1;" edge="1" parent="1" source="cg6qyNsfiilicNUIA_CG-6" target="cg6qyNsfiilicNUIA_CG-1">
          <mxGeometry relative="1" as="geometry" />
        </mxCell>
        <mxCell id="cg6qyNsfiilicNUIA_CG-6" value="" style="aspect=fixed;html=1;points=[];align=center;image;fontSize=12;image=img/lib/mscae/Person.svg;" vertex="1" parent="1">
          <mxGeometry x="61.5" y="280" width="37" height="50" as="geometry" />
        </mxCell>
        <mxCell id="cg6qyNsfiilicNUIA_CG-12" style="edgeStyle=orthogonalEdgeStyle;rounded=0;orthogonalLoop=1;jettySize=auto;html=1;" edge="1" parent="1" source="cg6qyNsfiilicNUIA_CG-9" target="cg6qyNsfiilicNUIA_CG-11">
          <mxGeometry relative="1" as="geometry" />
        </mxCell>
        <mxCell id="cg6qyNsfiilicNUIA_CG-9" value="JSON&amp;nbsp;" style="outlineConnect=0;dashed=0;verticalLabelPosition=bottom;verticalAlign=top;align=center;html=1;shape=mxgraph.aws3.worker;fillColor=#D9A741;gradientColor=none;" vertex="1" parent="1">
          <mxGeometry x="414" y="37.5" width="56" height="65" as="geometry" />
        </mxCell>
        <mxCell id="cg6qyNsfiilicNUIA_CG-16" style="edgeStyle=orthogonalEdgeStyle;rounded=0;orthogonalLoop=1;jettySize=auto;html=1;entryX=0.536;entryY=0.064;entryDx=0;entryDy=0;entryPerimeter=0;" edge="1" parent="1" source="cg6qyNsfiilicNUIA_CG-11" target="cg6qyNsfiilicNUIA_CG-15">
          <mxGeometry relative="1" as="geometry" />
        </mxCell>
        <mxCell id="cg6qyNsfiilicNUIA_CG-11" value="HUB" style="image;html=1;image=img/lib/clip_art/computers/Database_128x128.png" vertex="1" parent="1">
          <mxGeometry x="640" y="30" width="80" height="80" as="geometry" />
        </mxCell>
        <mxCell id="cg6qyNsfiilicNUIA_CG-21" style="edgeStyle=orthogonalEdgeStyle;rounded=0;orthogonalLoop=1;jettySize=auto;html=1;" edge="1" parent="1" source="cg6qyNsfiilicNUIA_CG-15" target="cg6qyNsfiilicNUIA_CG-20">
          <mxGeometry relative="1" as="geometry" />
        </mxCell>
        <mxCell id="cg6qyNsfiilicNUIA_CG-15" value="" style="shape=folder;fontStyle=1;tabWidth=80;tabHeight=30;tabPosition=left;html=1;boundedLbl=1;" vertex="1" parent="1">
          <mxGeometry x="320" y="170" width="530" height="180" as="geometry" />
        </mxCell>
        <mxCell id="cg6qyNsfiilicNUIA_CG-13" value="CLIENTE" style="outlineConnect=0;dashed=0;verticalLabelPosition=bottom;verticalAlign=top;align=center;html=1;shape=mxgraph.aws3.table;fillColor=#2E73B8;gradientColor=none;" vertex="1" parent="1">
          <mxGeometry x="360" y="220" width="67.5" height="66" as="geometry" />
        </mxCell>
        <mxCell id="cg6qyNsfiilicNUIA_CG-17" value="DIRECCION" style="outlineConnect=0;dashed=0;verticalLabelPosition=bottom;verticalAlign=top;align=center;html=1;shape=mxgraph.aws3.table;fillColor=#2E73B8;gradientColor=none;" vertex="1" parent="1">
          <mxGeometry x="490" y="220" width="67.5" height="66" as="geometry" />
        </mxCell>
        <mxCell id="cg6qyNsfiilicNUIA_CG-19" value="" style="edgeStyle=orthogonalEdgeStyle;rounded=0;orthogonalLoop=1;jettySize=auto;html=1;" edge="1" parent="1" source="cg6qyNsfiilicNUIA_CG-18" target="cg6qyNsfiilicNUIA_CG-17">
          <mxGeometry relative="1" as="geometry" />
        </mxCell>
        <mxCell id="cg6qyNsfiilicNUIA_CG-18" value="&lt;h1&gt;OTPEMAILFE&lt;/h1&gt;&lt;p&gt;Valor 1 Correo validado por OTP&lt;/p&gt;&lt;p&gt;Null cuando no es validado por OTP&lt;/p&gt;" style="text;html=1;strokeColor=none;fillColor=none;spacing=5;spacingTop=-20;whiteSpace=wrap;overflow=hidden;rounded=0;" vertex="1" parent="1">
          <mxGeometry x="600" y="210" width="210" height="90" as="geometry" />
        </mxCell>
        <mxCell id="cg6qyNsfiilicNUIA_CG-27" style="edgeStyle=orthogonalEdgeStyle;rounded=0;orthogonalLoop=1;jettySize=auto;html=1;entryX=0.5;entryY=0;entryDx=0;entryDy=0;" edge="1" parent="1" source="cg6qyNsfiilicNUIA_CG-20" target="cg6qyNsfiilicNUIA_CG-23">
          <mxGeometry relative="1" as="geometry" />
        </mxCell>
        <mxCell id="cg6qyNsfiilicNUIA_CG-20" value="HUBDATOS" style="points=[[0,0,0],[0.25,0,0],[0.5,0,0],[0.75,0,0],[1,0,0],[0,1,0],[0.25,1,0],[0.5,1,0],[0.75,1,0],[1,1,0],[0,0.25,0],[0,0.5,0],[0,0.75,0],[1,0.25,0],[1,0.5,0],[1,0.75,0]];outlineConnect=0;fontColor=#232F3E;gradientColor=#F34482;gradientDirection=north;fillColor=#BC1356;strokeColor=#ffffff;dashed=0;verticalLabelPosition=bottom;verticalAlign=top;align=center;html=1;fontSize=12;fontStyle=0;aspect=fixed;shape=mxgraph.aws4.resourceIcon;resIcon=mxgraph.aws4.application_integration;" vertex="1" parent="1">
          <mxGeometry x="546" y="410" width="78" height="78" as="geometry" />
        </mxCell>
        <mxCell id="cg6qyNsfiilicNUIA_CG-22" value="&lt;h1&gt;Ruta Extraccion&lt;/h1&gt;&lt;p&gt;Se activan la 48 y 49.&lt;/p&gt;" style="text;html=1;strokeColor=none;fillColor=none;spacing=5;spacingTop=-20;whiteSpace=wrap;overflow=hidden;rounded=0;" vertex="1" parent="1">
          <mxGeometry x="650" y="389" width="230" height="91" as="geometry" />
        </mxCell>
        <mxCell id="cg6qyNsfiilicNUIA_CG-25" style="edgeStyle=orthogonalEdgeStyle;rounded=0;orthogonalLoop=1;jettySize=auto;html=1;" edge="1" parent="1" source="cg6qyNsfiilicNUIA_CG-23" target="cg6qyNsfiilicNUIA_CG-24">
          <mxGeometry relative="1" as="geometry" />
        </mxCell>
        <mxCell id="cg6qyNsfiilicNUIA_CG-43" style="edgeStyle=orthogonalEdgeStyle;rounded=0;orthogonalLoop=1;jettySize=auto;html=1;entryX=0;entryY=0.5;entryDx=0;entryDy=0;" edge="1" parent="1" source="cg6qyNsfiilicNUIA_CG-23" target="cg6qyNsfiilicNUIA_CG-42">
          <mxGeometry relative="1" as="geometry" />
        </mxCell>
        <mxCell id="cg6qyNsfiilicNUIA_CG-23" value="Si existe el correo FE" style="rhombus;whiteSpace=wrap;html=1;" vertex="1" parent="1">
          <mxGeometry x="546" y="560" width="80" height="80" as="geometry" />
        </mxCell>
        <mxCell id="cg6qyNsfiilicNUIA_CG-24" value="DESMARCACIONCLIENTEFE" style="outlineConnect=0;dashed=0;verticalLabelPosition=bottom;verticalAlign=top;align=center;html=1;shape=mxgraph.aws3.table;fillColor=#2E73B8;gradientColor=none;" vertex="1" parent="1">
          <mxGeometry x="551.25" y="700" width="67.5" height="70" as="geometry" />
        </mxCell>
        <mxCell id="cg6qyNsfiilicNUIA_CG-26" value="SI" style="text;html=1;strokeColor=none;fillColor=none;align=center;verticalAlign=middle;whiteSpace=wrap;rounded=0;" vertex="1" parent="1">
          <mxGeometry x="590" y="660" width="40" height="20" as="geometry" />
        </mxCell>
        <mxCell id="cg6qyNsfiilicNUIA_CG-29" style="edgeStyle=orthogonalEdgeStyle;rounded=0;orthogonalLoop=1;jettySize=auto;html=1;entryX=0;entryY=0.5;entryDx=0;entryDy=0;entryPerimeter=0;" edge="1" parent="1" source="cg6qyNsfiilicNUIA_CG-28" target="cg6qyNsfiilicNUIA_CG-24">
          <mxGeometry relative="1" as="geometry" />
        </mxCell>
        <mxCell id="cg6qyNsfiilicNUIA_CG-31" style="edgeStyle=orthogonalEdgeStyle;rounded=0;orthogonalLoop=1;jettySize=auto;html=1;" edge="1" parent="1" source="cg6qyNsfiilicNUIA_CG-28" target="cg6qyNsfiilicNUIA_CG-30">
          <mxGeometry relative="1" as="geometry" />
        </mxCell>
        <mxCell id="cg6qyNsfiilicNUIA_CG-34" style="edgeStyle=orthogonalEdgeStyle;rounded=0;orthogonalLoop=1;jettySize=auto;html=1;" edge="1" parent="1" source="cg6qyNsfiilicNUIA_CG-28" target="cg6qyNsfiilicNUIA_CG-32">
          <mxGeometry relative="1" as="geometry" />
        </mxCell>
        <mxCell id="cg6qyNsfiilicNUIA_CG-28" value="DESMARCACION FACTURA ELECTONICA" style="verticalLabelPosition=bottom;html=1;verticalAlign=top;align=center;strokeColor=none;fillColor=#00BEF2;shape=mxgraph.azure.service_bus;pointerEvents=1;" vertex="1" parent="1">
          <mxGeometry x="310" y="695" width="70" height="80" as="geometry" />
        </mxCell>
        <mxCell id="cg6qyNsfiilicNUIA_CG-33" style="edgeStyle=orthogonalEdgeStyle;rounded=0;orthogonalLoop=1;jettySize=auto;html=1;entryX=0;entryY=0.5;entryDx=0;entryDy=0;entryPerimeter=0;" edge="1" parent="1" source="cg6qyNsfiilicNUIA_CG-30" target="cg6qyNsfiilicNUIA_CG-28">
          <mxGeometry relative="1" as="geometry">
            <Array as="points">
              <mxPoint x="143" y="810" />
              <mxPoint x="310" y="810" />
            </Array>
          </mxGeometry>
        </mxCell>
        <mxCell id="cg6qyNsfiilicNUIA_CG-30" value="CM" style="image;html=1;image=img/lib/clip_art/computers/Database_128x128.png" vertex="1" parent="1">
          <mxGeometry x="102.5" y="695" width="80" height="80" as="geometry" />
        </mxCell>
        <mxCell id="cg6qyNsfiilicNUIA_CG-38" style="edgeStyle=orthogonalEdgeStyle;rounded=0;orthogonalLoop=1;jettySize=auto;html=1;entryX=0.5;entryY=0;entryDx=0;entryDy=0;" edge="1" parent="1" source="cg6qyNsfiilicNUIA_CG-32" target="cg6qyNsfiilicNUIA_CG-37">
          <mxGeometry relative="1" as="geometry" />
        </mxCell>
        <mxCell id="cg6qyNsfiilicNUIA_CG-32" value="DESMARCACIONCLIENTEFE_RSP" style="outlineConnect=0;dashed=0;verticalLabelPosition=bottom;verticalAlign=top;align=center;html=1;shape=mxgraph.aws3.table;fillColor=#2E73B8;gradientColor=none;" vertex="1" parent="1">
          <mxGeometry x="311.25" y="870" width="67.5" height="70" as="geometry" />
        </mxCell>
        <mxCell id="cg6qyNsfiilicNUIA_CG-40" style="edgeStyle=orthogonalEdgeStyle;rounded=0;orthogonalLoop=1;jettySize=auto;html=1;entryX=0;entryY=0.5;entryDx=0;entryDy=0;entryPerimeter=0;" edge="1" parent="1" source="cg6qyNsfiilicNUIA_CG-37" target="cg6qyNsfiilicNUIA_CG-39">
          <mxGeometry relative="1" as="geometry" />
        </mxCell>
        <mxCell id="cg6qyNsfiilicNUIA_CG-37" value="Si el registro esta con IDESTADO = 2" style="rhombus;whiteSpace=wrap;html=1;" vertex="1" parent="1">
          <mxGeometry x="272.5" y="1000" width="145" height="110" as="geometry" />
        </mxCell>
        <mxCell id="cg6qyNsfiilicNUIA_CG-39" value="DIRECCION" style="outlineConnect=0;dashed=0;verticalLabelPosition=bottom;verticalAlign=top;align=center;html=1;shape=mxgraph.aws3.table;fillColor=#2E73B8;gradientColor=none;" vertex="1" parent="1">
          <mxGeometry x="556.5" y="1022" width="67.5" height="66" as="geometry" />
        </mxCell>
        <mxCell id="cg6qyNsfiilicNUIA_CG-41" value="&lt;h1&gt;&lt;br&gt;&lt;/h1&gt;&lt;p&gt;Quita la marca del campo FACTURAELECTRONICA Y FECHAFACTURAELECTRONICA, y luego elimina el correo electronicico de la direccion NULL&lt;span&gt;.&lt;/span&gt;&lt;/p&gt;" style="text;html=1;strokeColor=none;fillColor=none;spacing=5;spacingTop=-20;whiteSpace=wrap;overflow=hidden;rounded=0;" vertex="1" parent="1">
          <mxGeometry x="650" y="980" width="190" height="120" as="geometry" />
        </mxCell>
        <mxCell id="cg6qyNsfiilicNUIA_CG-42" value="" style="ellipse;html=1;shape=endState;fillColor=#000000;strokeColor=#ff0000;" vertex="1" parent="1">
          <mxGeometry x="720" y="585" width="30" height="30" as="geometry" />
        </mxCell>
        <mxCell id="cg6qyNsfiilicNUIA_CG-44" value="NO" style="text;html=1;strokeColor=none;fillColor=none;align=center;verticalAlign=middle;whiteSpace=wrap;rounded=0;" vertex="1" parent="1">
          <mxGeometry x="650" y="575" width="40" height="20" as="geometry" />
        </mxCell>
        <mxCell id="cg6qyNsfiilicNUIA_CG-45" value="FIN" style="text;html=1;strokeColor=none;fillColor=none;align=center;verticalAlign=middle;whiteSpace=wrap;rounded=0;" vertex="1" parent="1">
          <mxGeometry x="715" y="620" width="40" height="20" as="geometry" />
        </mxCell>
      </root>
    </mxGraphModel>
  </diagram>
</mxfile>
